<svg width="30" height="30" viewBox="0 0 30 30" fill="none" xmlns="http://www.w3.org/2000/svg">
<path d="M0 15C0 6.71573 6.71573 0 15 0C23.2843 0 30 6.71573 30 15C30 23.2843 23.2843 30 15 30C6.71573 30 0 23.2843 0 15Z" fill="#BC1414"/>
<path d="M23.3125 10.4843C23.0938 9.71863 22.5469 9.17175 21.7813 8.953C20.4688 8.62488 14.8906 8.62488 14.8906 8.62488C14.8906 8.62488 9.42188 8.62488 8.00001 8.953C7.23438 9.17175 6.6875 9.71863 6.46875 10.4843C6.25 11.9061 6.25 14.7499 6.25 14.7499C6.25 14.7499 6.25 17.5936 6.57813 19.0155C6.79688 19.7811 7.34375 20.328 8.10937 20.5468C9.42187 20.8749 15 20.8749 15 20.8749C15 20.8749 20.4687 20.8749 21.8906 20.5468C22.6562 20.328 23.2031 19.7811 23.4219 19.0155C23.75 17.5936 23.75 14.7499 23.75 14.7499C23.75 14.7499 23.75 11.9061 23.3125 10.4843ZM13.25 17.3749V12.1249L17.8438 14.7499L13.25 17.3749Z" fill="white"/>
</svg>
