<svg width="126" height="83" viewBox="0 0 126 83" fill="none" xmlns="http://www.w3.org/2000/svg">
<path d="M125.201 0H0V83H125.201L99.8547 41.4999L125.201 0Z" fill="#004F92"/>
<path fill-rule="evenodd" clip-rule="evenodd" d="M85.7487 21.6701C82.862 23.9772 79.5738 25.2854 76.0862 25.2854C72.5987 25.2854 69.311 23.9772 66.4243 21.6701C69.311 19.3634 72.5987 18.0537 76.0862 18.0537C79.5738 18.0537 82.862 19.3634 85.7487 21.6701ZM62.0139 18.7841L62.0073 24.9713L66.4243 21.6701L62.0139 18.7841ZM16.5586 29.6042H19.1052V23.4278H25.4089V21.0085H19.1052V17.5697H26.1092V15.1714H16.5586V29.6042ZM37.2094 53.3535L37.2307 63.1376C37.2307 64.7078 36.1059 65.5782 34.3011 65.5782C32.5187 65.5782 31.3943 64.7078 31.3943 63.1376V53.3535H28.6347V63.1376C28.6347 66.3213 31.3086 68.1047 34.3011 68.1047C37.2735 68.1047 39.9901 66.3213 39.9901 63.1376V53.3535H37.2094ZM27.3471 67.7857L24.0677 62.4802C28.4516 60.8885 27.814 53.3535 22.1582 53.3535H16.5586V67.7857H19.1052V62.7131L21.2454 62.7557L24.1749 67.7857H27.3471ZM19.1052 55.7302H22.1797C25.1261 55.7302 25.1261 60.3366 22.1797 60.3366H19.1052V55.7302ZM78.8322 48.6948H87.5331V46.2755H81.379V34.2626H78.8322V48.6948ZM71.8062 34.2626H69.6625L64.5473 48.6948H67.2009L68.4307 45.1294H73.0162L74.2894 48.6948H76.943L71.8062 34.2626ZM69.2382 42.8372L70.7445 38.019L72.2307 42.8372H69.2382ZM57.7767 48.6948H60.3233V36.7245H64.7175V34.2626H53.5744V36.7245H57.7767V48.6948ZM52.7106 48.6948L49.4312 43.3891C53.8151 41.7969 53.178 34.2626 47.5221 34.2626H41.9228V48.6948H44.4695V43.6219L46.6096 43.6648L49.5382 48.6948H52.7106ZM44.4695 36.639H47.5435C50.4896 36.639 50.4896 41.2455 47.5435 41.2455H44.4695V36.639ZM28.4445 38.8896V44.0465C28.4445 47.2302 31.1182 49.0136 34.1111 49.0136C37.083 49.0136 39.7996 47.2302 39.7996 44.0465V38.8896C39.7996 35.6846 37.083 33.9651 34.1111 33.9651C31.1182 33.9651 28.4445 35.6846 28.4445 38.8896ZM31.2039 44.0465V38.8896C31.2039 37.233 32.3287 36.5117 34.1111 36.4914C35.8941 36.4914 37.0402 37.2132 37.0402 38.8896V44.0465C37.0402 45.6172 35.9154 46.4876 34.1111 46.4876C32.3287 46.4876 31.2039 45.6172 31.2039 44.0465ZM22.1831 43.6932C28.5505 43.8205 28.5505 34.2626 22.1621 34.2626H16.5586V48.7017H19.1052V43.629L22.1831 43.6932ZM22.1831 36.639C25.1327 36.639 25.1327 41.2489 22.1831 41.2489H19.1052V36.639H22.1831ZM45.2108 29.6042H47.7577V23.831H53.2764V29.6042H55.8223V15.1714H53.2764V21.4326H47.7577V15.1714H45.2108V29.6042ZM38.6109 21.2416C37.3159 21.0288 35.8725 20.4774 35.8725 19.1825C35.8725 17.9935 36.8061 17.2722 38.2923 17.2722C40.4352 17.2722 41.2204 18.6524 41.5813 19.1825L43.8106 18.0363C42.6853 16.0629 40.7758 14.8958 38.2923 14.8958C35.5116 14.8958 33.2407 16.6993 33.2407 19.1825C33.2407 21.7501 35.3628 23.3215 38.3768 23.6609C40.0111 23.8519 41.1146 24.3193 41.1146 25.6137C41.1146 26.7814 40.2224 27.4817 38.7164 27.4817C36.5091 27.4817 35.7445 25.9954 35.4475 25.4869L33.1555 26.633C34.1527 28.6493 36.2114 29.8799 38.7164 29.8799C41.4114 29.8799 43.8106 28.3521 43.7462 25.6345C43.6828 23.0451 41.7091 21.6664 38.6109 21.2416ZM28.4435 29.6042H30.9913V15.1714H28.4435V29.6042Z" fill="white"/>
<path d="M87.5284 56.7629L87.463 56.7494L87.3075 56.7178C66.3497 52.7785 65.8708 61.2846 44.6875 57.0045V59.4483C65.9475 63.7064 66.3512 55.1244 87.5284 59.2049V56.7629ZM87.5284 61.5699V64.0014C66.3573 59.9211 65.9504 68.5045 44.6875 64.244V61.8118C65.8703 66.0919 66.3507 57.5865 87.3075 61.527L87.463 61.5559L87.5284 61.5699Z" fill="white"/>
</svg>
