<svg width="30" height="30" viewBox="0 0 30 30" fill="none" xmlns="http://www.w3.org/2000/svg">
<path fill-rule="evenodd" clip-rule="evenodd" d="M0 15C0 23.2843 6.71573 30 15 30C23.2843 30 30 23.2843 30 15C30 6.71573 23.2843 0 15 0C6.71573 0 0 6.71573 0 15ZM12.2523 21.8751L12.5076 18.0515L12.5073 18.0513L19.4629 11.7744C19.7682 11.5035 19.3963 11.3714 18.991 11.6171L10.4069 17.0328L6.69902 15.8755C5.89828 15.6303 5.89253 15.0801 6.87879 14.6845L21.3275 9.11309C21.9875 8.81349 22.6244 9.27159 22.3725 10.2816L19.9118 21.877C19.74 22.701 19.2422 22.898 18.5523 22.5174L14.804 19.7481L13.0023 21.5001C12.9967 21.5056 12.991 21.5111 12.9854 21.5166C12.7839 21.7127 12.6172 21.8751 12.2523 21.8751Z" fill="#4BAEDC"/>
</svg>
