<svg width="30" height="30" viewBox="0 0 30 30" fill="none" xmlns="http://www.w3.org/2000/svg">
<path fill-rule="evenodd" clip-rule="evenodd" d="M0 15C0 23.2843 6.71573 30 15 30C23.2843 30 30 23.2843 30 15C30 6.71573 23.2843 0 15 0C6.71573 0 0 6.71573 0 15ZM12.2523 21.8749L12.5076 18.0513L12.5073 18.0512L19.4629 11.7743C19.7682 11.5034 19.3963 11.3713 18.991 11.617L10.4069 17.0326L6.69902 15.8753C5.89828 15.6302 5.89253 15.0799 6.87879 14.6843L21.3275 9.11297C21.9875 8.81337 22.6244 9.27147 22.3725 10.2815L19.9118 21.8769C19.74 22.7009 19.2422 22.8979 18.5523 22.5173L14.804 19.748L13.0023 21.4999C12.9967 21.5055 12.991 21.511 12.9854 21.5164C12.7839 21.7126 12.6172 21.8749 12.2523 21.8749Z" fill="#66B9FF"/>
</svg>
