<svg width="30" height="30" viewBox="0 0 30 30" fill="none" xmlns="http://www.w3.org/2000/svg">
<path fill-rule="evenodd" clip-rule="evenodd" d="M15 0C6.71573 0 0 6.71573 0 15C0 23.2843 6.71573 30 15 30C23.2843 30 30 23.2843 30 15C30 6.71573 23.2843 0 15 0ZM16.2211 19.7351C16.0732 19.8911 15.7844 19.9226 15.7844 19.9226H14.8281C14.8281 19.9226 12.7184 20.047 10.8598 18.1481C8.83294 16.0764 7.04322 11.966 7.04322 11.966C7.04322 11.966 6.93992 11.6963 7.05183 11.5665C7.17782 11.4198 7.52137 11.4106 7.52137 11.4106L9.80723 11.396C9.80723 11.396 10.0224 11.4306 10.1766 11.5419C10.3042 11.6341 10.3754 11.8054 10.3754 11.8054C10.3754 11.8054 10.7447 12.7226 11.2338 13.5522C12.1893 15.1723 12.6338 15.5264 12.9578 15.3528C13.4305 15.1001 13.2888 13.0629 13.2888 13.0629C13.2888 13.0629 13.2974 12.3239 13.0509 11.9944C12.86 11.7394 12.5 11.6649 12.3412 11.6441C12.212 11.6272 12.4233 11.3338 12.6972 11.2024C13.1088 11.005 13.8351 10.9935 14.6935 11.0019C15.3626 11.0088 15.5551 11.0496 15.8165 11.1118C16.4231 11.2555 16.4042 11.716 16.3633 12.7098C16.3511 13.007 16.3369 13.352 16.3369 13.7504C16.3369 13.8399 16.3343 13.9354 16.3315 14.0336C16.3173 14.5427 16.3011 15.1258 16.6429 15.3428C16.8182 15.4534 17.2462 15.3589 18.3176 13.5737C18.8255 12.7272 19.2058 11.7324 19.2058 11.7324C19.2058 11.7324 19.2895 11.555 19.4186 11.479C19.5509 11.4014 19.7293 11.4252 19.7293 11.4252L22.1349 11.4106C22.1349 11.4106 22.858 11.3253 22.9746 11.6464C23.0975 11.9821 22.7046 12.7672 21.7217 14.0531C20.7894 15.2732 20.3356 15.7224 20.3773 16.1197C20.4077 16.41 20.7026 16.6726 21.2686 17.1879C22.4501 18.2647 22.7668 18.8312 22.8429 18.9673C22.8492 18.9786 22.8538 18.9869 22.8572 18.9923C23.387 19.855 22.2695 19.9226 22.2695 19.9226L20.1323 19.9517C20.1323 19.9517 19.6737 20.0409 19.0696 19.6337C18.7531 19.4207 18.4439 19.0726 18.1494 18.7411C17.6995 18.2349 17.284 17.7672 16.9293 17.8777C16.3338 18.0636 16.3518 19.3226 16.3518 19.3226C16.3518 19.3226 16.3565 19.5923 16.2211 19.7351Z" fill="#66B9FF"/>
</svg>
