<svg width="30" height="30" viewBox="0 0 30 30" fill="none" xmlns="http://www.w3.org/2000/svg">
<path fill-rule="evenodd" clip-rule="evenodd" d="M15 0C6.71573 0 0 6.71573 0 15C0 23.2843 6.71573 30 15 30C23.2843 30 30 23.2843 30 15C30 6.71573 23.2843 0 15 0ZM16.2216 19.7351C16.0737 19.8911 15.7849 19.9226 15.7849 19.9226H14.8286C14.8286 19.9226 12.7188 20.047 10.8602 18.1481C8.83341 16.0764 7.0437 11.966 7.0437 11.966C7.0437 11.966 6.9404 11.6963 7.05231 11.5665C7.1783 11.4198 7.52184 11.4106 7.52184 11.4106L9.8077 11.396C9.8077 11.396 10.0229 11.4306 10.1771 11.5419C10.3046 11.6341 10.3758 11.8054 10.3758 11.8054C10.3758 11.8054 10.7452 12.7226 11.2343 13.5522C12.1898 15.1723 12.6343 15.5264 12.9583 15.3528C13.431 15.1001 13.2893 13.0629 13.2893 13.0629C13.2893 13.0629 13.2979 12.3239 13.0514 11.9944C12.8605 11.7394 12.5005 11.6649 12.3416 11.6441C12.2125 11.6272 12.4238 11.3338 12.6977 11.2024C13.1093 11.005 13.8355 10.9935 14.694 11.0019C15.3631 11.0088 15.5556 11.0496 15.817 11.1118C16.4236 11.2555 16.4047 11.716 16.3638 12.7098C16.3516 13.007 16.3374 13.352 16.3374 13.7504C16.3374 13.8399 16.3347 13.9354 16.332 14.0336C16.3178 14.5427 16.3016 15.1258 16.6434 15.3428C16.8187 15.4534 17.2467 15.3589 18.318 13.5737C18.8259 12.7272 19.2063 11.7325 19.2063 11.7325C19.2063 11.7325 19.29 11.555 19.4191 11.479C19.5514 11.4014 19.7298 11.4252 19.7298 11.4252L22.1354 11.4106C22.1354 11.4106 22.8585 11.3253 22.9751 11.6464C23.0979 11.9821 22.7051 12.7672 21.7222 14.0531C20.7898 15.2732 20.3361 15.7224 20.3777 16.1197C20.4082 16.41 20.7031 16.6726 21.2691 17.1879C22.4506 18.2647 22.7673 18.8312 22.8434 18.9673C22.8497 18.9786 22.8543 18.9869 22.8577 18.9923C23.3875 19.855 22.27 19.9226 22.27 19.9226L20.1328 19.9518C20.1328 19.9518 19.6742 20.0409 19.0701 19.6337C18.7536 19.4207 18.4444 19.0726 18.1498 18.7411C17.7 18.2349 17.2845 17.7672 16.9298 17.8777C16.3343 18.0636 16.3523 19.3226 16.3523 19.3226C16.3523 19.3226 16.357 19.5923 16.2216 19.7351Z" fill="#296ABE"/>
</svg>
