<svg width="30" height="30" viewBox="0 0 30 30" fill="none" xmlns="http://www.w3.org/2000/svg">
<path fill-rule="evenodd" clip-rule="evenodd" d="M0 15C0 23.2843 6.71573 30 15 30C23.2843 30 30 23.2843 30 15C30 6.71573 23.2843 0 15 0C6.71573 0 0 6.71573 0 15ZM24.4141 14.426C24.4121 19.3427 20.4124 23.3434 15.4946 23.3454H15.491C13.9982 23.3449 12.5313 22.9703 11.2286 22.2597L6.50022 23.5001L7.7656 18.8781C6.98505 17.5254 6.57433 15.991 6.575 14.419C6.57696 9.50112 10.5782 5.50007 15.4946 5.50007C17.8806 5.5011 20.1201 6.42998 21.8041 8.11595C23.4881 9.80183 24.415 12.0428 24.4141 14.426Z" fill="#15B44A"/>
<path fill-rule="evenodd" clip-rule="evenodd" d="M8.64285 21.3809L11.4487 20.6449L11.7194 20.8055C12.8577 21.481 14.1624 21.8384 15.4927 21.8389H15.4957C19.5818 21.8389 22.9075 18.5132 22.9091 14.4254C22.9099 12.4445 22.1395 10.5819 20.7398 9.18056C19.3402 7.77925 17.4788 7.00716 15.4986 7.00647C11.4094 7.00647 8.08365 10.3319 8.08203 14.4194C8.08146 15.8202 8.4734 17.1844 9.21551 18.3647L9.39178 18.6452L8.64285 21.3809ZM19.6854 16.3462C19.8408 16.4214 19.9458 16.4721 19.9906 16.5469C20.0463 16.6398 20.0463 17.0861 19.8607 17.6067C19.6749 18.1273 18.7846 18.6025 18.3563 18.6664C17.9724 18.7238 17.4865 18.7478 16.9526 18.5781C16.6289 18.4754 16.2138 18.3383 15.6821 18.1086C13.5927 17.2065 12.1808 15.1814 11.9139 14.7987C11.8952 14.7719 11.8822 14.7532 11.8749 14.7434L11.8731 14.741C11.7551 14.5837 10.9648 13.5292 10.9648 12.4379C10.9648 11.4114 11.4691 10.8733 11.7012 10.6256C11.7171 10.6086 11.7318 10.593 11.7449 10.5787C11.9491 10.3556 12.1906 10.2998 12.3392 10.2998C12.4877 10.2998 12.6365 10.3012 12.7663 10.3077C12.7823 10.3085 12.799 10.3084 12.8162 10.3083C12.9461 10.3075 13.108 10.3066 13.2678 10.6903C13.3292 10.8379 13.4191 11.0568 13.514 11.2877C13.7057 11.7546 13.9176 12.2704 13.9549 12.3451C14.0106 12.4566 14.0478 12.5867 13.9735 12.7356C13.9623 12.7579 13.952 12.7789 13.9422 12.799C13.8864 12.913 13.8453 12.9967 13.7506 13.1073C13.7134 13.1508 13.6749 13.1977 13.6364 13.2445C13.5597 13.3379 13.4831 13.4313 13.4163 13.4978C13.3047 13.6089 13.1886 13.7295 13.3186 13.9526C13.4486 14.1757 13.8959 14.9055 14.5584 15.4965C15.2706 16.1318 15.8896 16.4003 16.2034 16.5364C16.2647 16.5629 16.3143 16.5845 16.3507 16.6027C16.5735 16.7143 16.7035 16.6956 16.8335 16.5469C16.9635 16.3982 17.3906 15.8961 17.5392 15.673C17.6877 15.45 17.8364 15.4871 18.0406 15.5615C18.2449 15.6359 19.3407 16.175 19.5635 16.2866C19.607 16.3084 19.6477 16.328 19.6854 16.3462Z" fill="#15B44A"/>
</svg>
