<svg width="30" height="30" viewBox="0 0 30 30" fill="none" xmlns="http://www.w3.org/2000/svg">
<path fill-rule="evenodd" clip-rule="evenodd" d="M0 15C0 23.2843 6.71573 30 15 30C23.2843 30 30 23.2843 30 15C30 6.71573 23.2843 0 15 0C6.71573 0 0 6.71573 0 15ZM24.414 14.4261C24.412 19.3428 20.4123 23.3434 15.4945 23.3454H15.4909C13.9981 23.3449 12.5313 22.9704 11.2285 22.2598L6.50013 23.5001L7.76551 18.8782C6.98496 17.5254 6.57424 15.9911 6.57491 14.419C6.57687 9.50119 10.5781 5.50013 15.4945 5.50013C17.8805 5.50116 20.12 6.43004 21.804 8.11601C23.488 9.80189 24.4149 12.0428 24.414 14.4261Z" fill="#66B9FF"/>
<path fill-rule="evenodd" clip-rule="evenodd" d="M8.64285 21.381L11.4487 20.645L11.7194 20.8057C12.8577 21.4811 14.1624 21.8385 15.4927 21.839H15.4957C19.5818 21.839 22.9075 18.5133 22.9091 14.4255C22.9099 12.4446 22.1395 10.582 20.7398 9.18069C19.3402 7.77938 17.4788 7.00728 15.4986 7.00659C11.4094 7.00659 8.08365 10.332 8.08203 14.4195C8.08146 15.8203 8.4734 17.1845 9.21551 18.3648L9.39178 18.6453L8.64285 21.381ZM19.6815 16.3462C19.8369 16.4214 19.9419 16.4721 19.9867 16.5469C20.0424 16.6398 20.0424 17.0861 19.8568 17.6067C19.671 18.1273 18.7807 18.6025 18.3524 18.6664C17.9685 18.7238 17.4826 18.7478 16.9487 18.5781C16.625 18.4754 16.2099 18.3383 15.6782 18.1086C13.5888 17.2065 12.1769 15.1815 11.91 14.7987C11.8913 14.7719 11.8783 14.7532 11.871 14.7434L11.8692 14.741C11.7512 14.5837 10.9609 13.5292 10.9609 12.4379C10.9609 11.4114 11.4652 10.8733 11.6973 10.6256C11.7132 10.6086 11.7279 10.593 11.741 10.5787C11.9452 10.3556 12.1867 10.2998 12.3353 10.2998C12.4838 10.2998 12.6326 10.3012 12.7624 10.3077C12.7784 10.3085 12.7951 10.3084 12.8123 10.3083C12.9422 10.3075 13.1041 10.3066 13.2639 10.6903C13.3253 10.8379 13.4152 11.0569 13.5101 11.2877C13.7018 11.7546 13.9137 12.2704 13.951 12.3451C14.0067 12.4566 14.0439 12.5867 13.9696 12.7356C13.9584 12.7579 13.9481 12.7789 13.9383 12.799C13.8825 12.913 13.8414 12.9967 13.7467 13.1073C13.7095 13.1508 13.671 13.1977 13.6325 13.2445C13.5558 13.3379 13.4792 13.4313 13.4124 13.4978C13.3008 13.6089 13.1847 13.7295 13.3147 13.9526C13.4447 14.1757 13.892 14.9055 14.5545 15.4965C15.2667 16.1318 15.8857 16.4003 16.1995 16.5364C16.2607 16.5629 16.3104 16.5845 16.3468 16.6027C16.5696 16.7143 16.6996 16.6956 16.8296 16.5469C16.9596 16.3982 17.3867 15.8961 17.5353 15.673C17.6838 15.45 17.8325 15.4871 18.0367 15.5615C18.241 15.6359 19.3367 16.175 19.5596 16.2866C19.6031 16.3084 19.6438 16.328 19.6815 16.3462Z" fill="#66B9FF"/>
</svg>
