<svg width="30" height="30" viewBox="0 0 30 30" fill="none" xmlns="http://www.w3.org/2000/svg">
<path fill-rule="evenodd" clip-rule="evenodd" d="M15 0C6.71573 0 0 6.71573 0 15C0 23.2843 6.71573 30 15 30C23.2843 30 30 23.2843 30 15C30 6.71573 23.2843 0 15 0ZM21.7813 8.95288C22.5469 9.17163 23.0938 9.71851 23.3125 10.4841C23.75 11.906 23.75 14.7498 23.75 14.7498C23.75 14.7498 23.75 17.5935 23.4219 19.0154C23.2031 19.781 22.6562 20.3279 21.8906 20.5466C20.4687 20.8748 15 20.8748 15 20.8748C15 20.8748 9.42187 20.8748 8.10937 20.5466C7.34375 20.3279 6.79688 19.781 6.57813 19.0154C6.25 17.5935 6.25 14.7498 6.25 14.7498C6.25 14.7498 6.25 11.906 6.46875 10.4841C6.6875 9.71851 7.23438 9.17163 8.00001 8.95288C9.42188 8.62476 14.8906 8.62476 14.8906 8.62476C14.8906 8.62476 20.4688 8.62476 21.7813 8.95288ZM17.8438 14.7498L13.25 12.1248V17.3748L17.8438 14.7498Z" fill="#66B9FF"/>
</svg>
